<?xml version="1.0" encoding="UTF-8"?>
<svg xmlns="http://www.w3.org/2000/svg" xmlns:xlink="http://www.w3.org/1999/xlink" width="48px" height="48px" viewBox="0 0 48 48" version="1.1">
<g id="surface1">
<path style=" stroke:none;fill-rule:evenodd;fill:rgb(100%,100%,100%);fill-opacity:1;" d="M 47.136719 41.585938 C 45.65625 46.089844 39.851562 48.335938 35.703125 47.960938 C 30.039062 47.449219 23.875 44.445312 19.199219 41.136719 C 12.320312 36.273438 5.878906 28.75 2.125 20.765625 C -0.527344 15.125 -1.121094 8.183594 2.824219 3.042969 C 4.28125 1.140625 5.859375 0.128906 8.230469 0.0078125 C 11.519531 -0.152344 11.980469 1.730469 13.113281 4.664062 C 13.953125 6.855469 15.074219 9.089844 15.703125 11.363281 C 16.878906 15.601562 12.773438 15.777344 12.253906 19.246094 C 11.929688 21.429688 14.582031 24.363281 15.777344 25.917969 C 18.121094 28.972656 20.941406 31.605469 24.121094 33.609375 C 25.941406 34.757812 28.882812 36.828125 30.96875 35.6875 C 34.183594 33.925781 33.878906 28.507812 38.371094 30.34375 C 40.699219 31.289062 42.953125 32.65625 45.171875 33.851562 C 48.605469 35.699219 48.445312 37.613281 47.136719 41.585938 C 46.15625 44.558594 48.117188 38.617188 47.136719 41.585938 "/>
</g>
</svg>
