<?xml version="1.0" encoding="UTF-8"?>
<svg xmlns="http://www.w3.org/2000/svg" xmlns:xlink="http://www.w3.org/1999/xlink" width="35px" height="35px" viewBox="0 0 35 35" version="1.1">
<g id="surface1">
<path style=" stroke:none;fill-rule:nonzero;fill:rgb(100%,100%,100%);fill-opacity:1;" d="M 24.207031 32.082031 C 24.03125 32.082031 23.851562 32.074219 23.671875 32.0625 C 20.722656 31.839844 17.898438 30.777344 15.53125 29 C 11.921875 26.289062 8.710938 23.082031 6.003906 19.46875 C 4.226562 17.101562 3.164062 14.277344 2.941406 11.328125 C 2.863281 10.328125 3.003906 9.320312 3.351562 8.378906 C 3.699219 7.4375 4.246094 6.582031 4.957031 5.871094 L 6.785156 4.042969 C 7.507812 3.324219 8.484375 2.917969 9.503906 2.917969 C 10.523438 2.917969 11.503906 3.324219 12.222656 4.042969 L 13.875 5.695312 C 14.234375 6.054688 14.515625 6.476562 14.710938 6.945312 C 14.902344 7.410156 15.003906 7.910156 15.003906 8.414062 C 15.003906 8.921875 14.902344 9.421875 14.710938 9.886719 C 14.515625 10.355469 14.234375 10.777344 13.875 11.136719 L 12.929688 12.082031 C 12.539062 12.472656 12.296875 12.988281 12.242188 13.535156 C 12.1875 14.085938 12.324219 14.636719 12.628906 15.097656 C 14.550781 17.980469 17.023438 20.453125 19.90625 22.371094 C 20.367188 22.675781 20.917969 22.8125 21.464844 22.757812 C 22.015625 22.703125 22.527344 22.460938 22.917969 22.070312 L 23.867188 21.125 C 24.222656 20.765625 24.648438 20.484375 25.113281 20.289062 C 25.582031 20.097656 26.082031 19.996094 26.585938 19.996094 C 27.089844 19.996094 27.589844 20.097656 28.058594 20.289062 C 28.523438 20.484375 28.949219 20.765625 29.304688 21.125 L 30.957031 22.777344 C 31.316406 23.132812 31.597656 23.554688 31.792969 24.023438 C 31.984375 24.488281 32.085938 24.988281 32.085938 25.496094 C 32.085938 26 31.984375 26.5 31.792969 26.964844 C 31.597656 27.433594 31.316406 27.855469 30.957031 28.214844 L 29.128906 30.042969 C 28.480469 30.6875 27.714844 31.203125 26.871094 31.550781 C 26.027344 31.902344 25.121094 32.082031 24.207031 32.082031 Z M 9.503906 4.375 C 9.191406 4.375 8.878906 4.4375 8.589844 4.554688 C 8.300781 4.675781 8.039062 4.851562 7.816406 5.074219 L 5.988281 6.902344 C 5.425781 7.464844 4.992188 8.140625 4.714844 8.886719 C 4.441406 9.628906 4.328125 10.425781 4.390625 11.21875 C 4.597656 13.890625 5.558594 16.449219 7.167969 18.59375 C 9.792969 22.09375 12.90625 25.207031 16.40625 27.832031 C 18.550781 29.441406 21.109375 30.40625 23.78125 30.609375 C 24.574219 30.667969 25.367188 30.558594 26.113281 30.28125 C 26.859375 30.007812 27.535156 29.574219 28.097656 29.011719 L 29.925781 27.183594 C 30.375 26.734375 30.625 26.128906 30.625 25.496094 C 30.625 24.863281 30.375 24.253906 29.925781 23.804688 L 28.273438 22.152344 C 27.816406 21.71875 27.214844 21.476562 26.585938 21.476562 C 25.957031 21.476562 25.351562 21.71875 24.898438 22.152344 L 23.949219 23.101562 C 23.320312 23.730469 22.492188 24.121094 21.609375 24.207031 C 20.722656 24.292969 19.835938 24.074219 19.097656 23.582031 C 16.050781 21.558594 13.441406 18.949219 11.417969 15.90625 C 10.925781 15.164062 10.707031 14.277344 10.792969 13.394531 C 10.882812 12.507812 11.273438 11.679688 11.898438 11.050781 L 12.847656 10.105469 C 13.292969 9.65625 13.546875 9.050781 13.546875 8.417969 C 13.546875 7.78125 13.292969 7.175781 12.847656 6.726562 L 11.195312 5.074219 C 10.972656 4.851562 10.707031 4.675781 10.417969 4.554688 C 10.128906 4.4375 9.820312 4.375 9.503906 4.375 Z M 9.503906 4.375 "/>
</g>
</svg>
