<svg xmlns="http://www.w3.org/2000/svg" xmlns:xlink="http://www.w3.org/1999/xlink" width="100" zoomAndPan="magnify" viewBox="0 0 75 38.999999" height="52" preserveAspectRatio="xMidYMid meet" version="1.0"><defs><g/></defs><g fill="#ffffff" fill-opacity="1"><g transform="translate(0.000000961538, 27.644335)"><g><path d="M 15.421875 0 L 15.578125 -6.453125 L 14.9375 -6.453125 L 14.390625 -4.296875 C 13.867188 -2.316406 13.007812 -1.1875 11.8125 -0.90625 C 11.550781 -0.863281 11.300781 -0.84375 11.0625 -0.84375 L 6.640625 -0.84375 L 6.640625 -18.515625 L 9.359375 -18.515625 L 9.359375 -19.359375 L 1.296875 -19.359375 L 1.296875 -18.515625 L 3.875 -18.515625 L 3.875 -0.84375 L 1.296875 -0.84375 L 1.296875 0 Z M 15.421875 0 "/></g></g></g><g fill="#ffffff" fill-opacity="1"><g transform="translate(15.892516, 27.644335)"><g><path d="M 10.15625 -18.515625 C 12.070312 -18.515625 13.3125 -17.65625 13.875 -15.9375 C 14.039062 -15.375 14.125 -14.769531 14.125 -14.125 C 14.125 -11.332031 12.878906 -9.796875 10.390625 -9.515625 C 10.128906 -9.492188 9.867188 -9.484375 9.609375 -9.484375 L 6.640625 -9.484375 L 6.640625 -18.515625 Z M 9.875 0 C 9.875 -0.46875 9.703125 -0.738281 9.359375 -0.8125 C 9.242188 -0.832031 9.132812 -0.84375 9.03125 -0.84375 L 6.640625 -0.84375 L 6.640625 -8.546875 L 9.484375 -8.546875 C 13.015625 -8.546875 15.347656 -9.546875 16.484375 -11.546875 C 16.929688 -12.296875 17.15625 -13.164062 17.15625 -14.15625 C 17.15625 -16.289062 16.234375 -17.785156 14.390625 -18.640625 C 13.398438 -19.117188 12.21875 -19.359375 10.84375 -19.359375 L 1.296875 -19.359375 L 1.296875 -18.515625 L 3.875 -18.515625 L 3.875 -0.84375 L 1.296875 -0.84375 L 1.296875 0 Z M 9.875 0 "/></g></g></g></svg>