<?xml version="1.0" encoding="UTF-8"?>
<svg xmlns="http://www.w3.org/2000/svg" xmlns:xlink="http://www.w3.org/1999/xlink" width="48px" height="48px" viewBox="0 0 48 48" version="1.1">
<g id="surface1">
<path style="fill-rule:nonzero;fill:rgb(100%,100%,100%);fill-opacity:1;stroke-width:1;stroke-linecap:butt;stroke-linejoin:miter;stroke:rgb(100%,100%,100%);stroke-opacity:1;stroke-miterlimit:4;" d="M 16.114583 -0.0104167 C 9.554688 -0.0104167 4 5.575521 4 12.192708 C 4 19.122396 10.440104 26.210938 14.770833 31.190104 C 14.786458 31.210938 15.486979 31.986979 16.348958 31.986979 L 16.424479 31.986979 C 17.289062 31.986979 17.981771 31.210938 18 31.190104 C 22.065104 26.518229 28 18.815104 28 12.192708 C 28 5.575521 23.666667 -0.0104167 16.114583 -0.0104167 Z M 16.515625 29.848958 C 16.479167 29.882812 16.429688 29.921875 16.382812 29.955729 C 16.338542 29.924479 16.289062 29.882812 16.25 29.848958 L 15.729167 29.247396 C 11.622396 24.536458 6 18.085938 6 12.192708 C 6 6.658854 10.630208 1.986979 16.111979 1.986979 C 22.942708 1.986979 26 7.111979 26 12.192708 C 26 16.666667 22.807292 22.606771 16.513021 29.848958 Z M 16.033854 6.044271 C 12.721354 6.044271 10.033854 8.729167 10.033854 12.044271 C 10.033854 15.356771 12.721354 18.044271 16.033854 18.044271 C 19.348958 18.044271 22.033854 15.356771 22.033854 12.044271 C 22.033854 8.731771 19.348958 6.044271 16.033854 6.044271 Z M 16.033854 16.044271 C 13.828125 16.044271 11.989583 14.205729 11.989583 12 C 11.989583 9.794271 13.783854 8 15.989583 8 C 18.195312 8 19.989583 9.794271 19.989583 12 C 19.989583 14.205729 18.242188 16.044271 16.033854 16.044271 Z M 16.033854 16.044271 " transform="matrix(1.5,0,0,1.5,0,0)"/>
</g>
</svg>
