<?xml version="1.0" encoding="UTF-8"?>
<svg xmlns="http://www.w3.org/2000/svg" xmlns:xlink="http://www.w3.org/1999/xlink" width="35px" height="35px" viewBox="0 0 35 35" version="1.1">
<g id="surface1">
<path style=" stroke:none;fill-rule:nonzero;fill:rgb(100%,100%,100%);fill-opacity:1;" d="M 27.34375 4.375 L 7.65625 4.375 C 4.636719 4.375 2.1875 6.824219 2.1875 9.84375 L 2.1875 25.15625 C 2.1875 28.175781 4.636719 30.625 7.65625 30.625 L 27.34375 30.625 C 30.363281 30.625 32.8125 28.175781 32.8125 25.15625 L 32.8125 9.84375 C 32.8125 6.824219 30.363281 4.375 27.34375 4.375 Z M 7.65625 6.5625 L 27.34375 6.5625 C 28.378906 6.566406 29.355469 7.0625 29.96875 7.898438 C 29.96875 7.898438 29.96875 7.898438 29.882812 7.898438 L 19.6875 17.269531 C 18.433594 18.425781 16.503906 18.425781 15.246094 17.269531 L 5.117188 7.941406 L 5.03125 7.941406 C 5.636719 7.089844 6.613281 6.578125 7.65625 6.5625 Z M 27.34375 28.4375 L 7.65625 28.4375 C 5.84375 28.4375 4.375 26.96875 4.375 25.15625 L 4.375 10.238281 L 13.804688 18.878906 C 15.894531 20.796875 19.105469 20.796875 21.195312 18.878906 L 30.625 10.238281 L 30.625 25.15625 C 30.625 26.96875 29.15625 28.4375 27.34375 28.4375 Z M 27.34375 28.4375 "/>
</g>
</svg>
