<?xml version="1.0" encoding="UTF-8"?>
<svg xmlns="http://www.w3.org/2000/svg" xmlns:xlink="http://www.w3.org/1999/xlink" width="40px" height="40px" viewBox="0 0 40 40" version="1.1">
<g id="surface1">
<path style=" stroke:none;fill-rule:nonzero;fill:rgb(100%,100%,100%);fill-opacity:1;" d="M 34.574219 5.546875 C 33.925781 4.898438 32.871094 4.898438 32.21875 5.546875 L 20.0625 17.703125 L 7.90625 5.546875 C 7.253906 4.898438 6.199219 4.898438 5.546875 5.546875 C 4.898438 6.199219 4.898438 7.253906 5.546875 7.90625 L 17.703125 20.0625 L 5.546875 32.21875 C 4.898438 32.871094 4.898438 33.925781 5.546875 34.574219 C 6.199219 35.226562 7.253906 35.226562 7.90625 34.574219 L 20.0625 22.417969 L 32.21875 34.574219 C 32.871094 35.226562 33.925781 35.226562 34.574219 34.574219 C 35.226562 33.925781 35.226562 32.871094 34.574219 32.21875 L 22.417969 20.0625 L 34.574219 7.90625 C 35.226562 7.253906 35.226562 6.199219 34.574219 5.546875 Z M 34.574219 5.546875 "/>
</g>
</svg>
